%TF.GenerationSoftware,KiCad,Pcbnew,8.0.8*%
%TF.CreationDate,2025-02-05T21:11:50-08:00*%
%TF.ProjectId,KiCad,4b694361-642e-46b6-9963-61645f706362,1*%
%TF.SameCoordinates,Original*%
%TF.FileFunction,Copper,L1,Top*%
%TF.FilePolarity,Positive*%
%FSLAX46Y46*%
G04 Gerber Fmt 4.6, Leading zero omitted, Abs format (unit mm)*
G04 Created by KiCad (PCBNEW 8.0.8) date 2025-02-05 21:11:50*
%MOMM*%
%LPD*%
G01*
G04 APERTURE LIST*
G04 Aperture macros list*
%AMRoundRect*
0 Rectangle with rounded corners*
0 $1 Rounding radius*
0 $2 $3 $4 $5 $6 $7 $8 $9 X,Y pos of 4 corners*
0 Add a 4 corners polygon primitive as box body*
4,1,4,$2,$3,$4,$5,$6,$7,$8,$9,$2,$3,0*
0 Add four circle primitives for the rounded corners*
1,1,$1+$1,$2,$3*
1,1,$1+$1,$4,$5*
1,1,$1+$1,$6,$7*
1,1,$1+$1,$8,$9*
0 Add four rect primitives between the rounded corners*
20,1,$1+$1,$2,$3,$4,$5,0*
20,1,$1+$1,$4,$5,$6,$7,0*
20,1,$1+$1,$6,$7,$8,$9,0*
20,1,$1+$1,$8,$9,$2,$3,0*%
G04 Aperture macros list end*
%TA.AperFunction,NonConductor*%
%ADD10C,0.200000*%
%TD*%
%TA.AperFunction,SMDPad,CuDef*%
%ADD11RoundRect,1.000000X-0.375000X-0.000010X0.375000X-0.000010X0.375000X0.000010X-0.375000X0.000010X0*%
%TD*%
%TA.AperFunction,SMDPad,CuDef*%
%ADD12RoundRect,0.250000X-1.775000X0.350000X-1.775000X-0.350000X1.775000X-0.350000X1.775000X0.350000X0*%
%TD*%
%TA.AperFunction,SMDPad,CuDef*%
%ADD13RoundRect,0.250000X-0.350000X-1.775000X0.350000X-1.775000X0.350000X1.775000X-0.350000X1.775000X0*%
%TD*%
%TA.AperFunction,SMDPad,CuDef*%
%ADD14RoundRect,0.090000X0.360000X-0.660000X0.360000X0.660000X-0.360000X0.660000X-0.360000X-0.660000X0*%
%TD*%
%TA.AperFunction,SMDPad,CuDef*%
%ADD15RoundRect,0.250000X-0.337500X-0.475000X0.337500X-0.475000X0.337500X0.475000X-0.337500X0.475000X0*%
%TD*%
%TA.AperFunction,SMDPad,CuDef*%
%ADD16RoundRect,0.250000X0.475000X-0.337500X0.475000X0.337500X-0.475000X0.337500X-0.475000X-0.337500X0*%
%TD*%
%TA.AperFunction,ComponentPad*%
%ADD17O,2.000000X1.600000*%
%TD*%
%TA.AperFunction,SMDPad,CuDef*%
%ADD18R,1.000000X2.510000*%
%TD*%
%TA.AperFunction,ViaPad*%
%ADD19C,0.600000*%
%TD*%
%TA.AperFunction,Conductor*%
%ADD20C,0.200000*%
%TD*%
G04 APERTURE END LIST*
D10*
X188500000Y-107500000D02*
X188500000Y-132000000D01*
X188500000Y-107500000D02*
X151500000Y-107500000D01*
X151500000Y-132000000D02*
X188500000Y-132000000D01*
X151500000Y-107500000D02*
X151500000Y-132000000D01*
X141000000Y-56000000D02*
X141000000Y-58000000D01*
X204500000Y-56000000D02*
X141000000Y-56000000D01*
X204500000Y-92000000D02*
X204500000Y-56000000D01*
X141000000Y-92000000D02*
X204500000Y-92000000D01*
X141000000Y-89500000D02*
X141000000Y-92000000D01*
X141000000Y-57000000D02*
X141000000Y-89500000D01*
D11*
%TO.P,U3,14,5V*%
%TO.N,unconnected-(U3-5V-Pad14)*%
X172665000Y-111880000D03*
%TO.P,U3,13,GND*%
%TO.N,GND*%
X172665000Y-114420000D03*
%TO.P,U3,12,3V3*%
%TO.N,+3.3V*%
X172665000Y-116960000D03*
%TO.P,U3,11,PA6_A10_D10_MOSI*%
%TO.N,unconnected-(U3-PA6_A10_D10_MOSI-Pad11)*%
X172665000Y-119500000D03*
%TO.P,U3,10,PA5_A9_D9_MISO*%
%TO.N,unconnected-(U3-PA5_A9_D9_MISO-Pad10)*%
X172665000Y-122040000D03*
%TO.P,U3,9,PA7_A8_D8_SCK*%
%TO.N,unconnected-(U3-PA7_A8_D8_SCK-Pad9)*%
X172665000Y-124580000D03*
%TO.P,U3,8,PB09_A7_D7_RX*%
%TO.N,unconnected-(U3-PB09_A7_D7_RX-Pad8)*%
X172665000Y-127120000D03*
%TO.P,U3,1,PA02_A0_D0*%
%TO.N,Net-(SW1A-A)*%
X156500000Y-111880000D03*
%TO.P,U3,2,PA4_A1_D1*%
%TO.N,unconnected-(U3-PA4_A1_D1-Pad2)*%
X156500000Y-114420000D03*
%TO.P,U3,3,PA10_A2_D2*%
%TO.N,/signal*%
X156500000Y-116960000D03*
%TO.P,U3,4,PA11_A3_D3*%
%TO.N,unconnected-(U3-PA11_A3_D3-Pad4)*%
X156500000Y-119500000D03*
%TO.P,U3,5,PA8_A4_D4_SDA*%
%TO.N,unconnected-(U3-PA8_A4_D4_SDA-Pad5)*%
X156500000Y-122040000D03*
%TO.P,U3,6,PA9_A5_D5_SCL*%
%TO.N,unconnected-(U3-PA9_A5_D5_SCL-Pad6)*%
X156500000Y-124580000D03*
%TO.P,U3,7,PB08_A6_D6_TX*%
%TO.N,unconnected-(U3-PB08_A6_D6_TX-Pad7)*%
X156500000Y-127120000D03*
%TD*%
%TO.P,U1,14,5V*%
%TO.N,unconnected-(U1-5V-Pad14)*%
X195840000Y-63260000D03*
%TO.P,U1,13,GND*%
%TO.N,Net-(U1-GND)*%
X195840000Y-65800000D03*
%TO.P,U1,12,3V3*%
%TO.N,+3.3V*%
X195840000Y-68340000D03*
%TO.P,U1,11,PA6_A10_D10_MOSI*%
%TO.N,unconnected-(U1-PA6_A10_D10_MOSI-Pad11)*%
X195840000Y-70880000D03*
%TO.P,U1,10,PA5_A9_D9_MISO*%
%TO.N,unconnected-(U1-PA5_A9_D9_MISO-Pad10)*%
X195840000Y-73420000D03*
%TO.P,U1,9,PA7_A8_D8_SCK*%
%TO.N,unconnected-(U1-PA7_A8_D8_SCK-Pad9)*%
X195840000Y-75960000D03*
%TO.P,U1,8,PB09_A7_D7_RX*%
%TO.N,Net-(U1-PB09_A7_D7_RX)*%
X195840000Y-78500000D03*
%TO.P,U1,1,PA02_A0_D0*%
%TO.N,Net-(U1-PA02_A0_D0)*%
X179675000Y-63260000D03*
%TO.P,U1,2,PA4_A1_D1*%
%TO.N,Net-(U1-PA4_A1_D1)*%
X179675000Y-65800000D03*
%TO.P,U1,3,PA10_A2_D2*%
%TO.N,Net-(U1-PA10_A2_D2)*%
X179675000Y-68340000D03*
%TO.P,U1,4,PA11_A3_D3*%
%TO.N,Net-(U1-PA11_A3_D3)*%
X179675000Y-70880000D03*
%TO.P,U1,5,PA8_A4_D4_SDA*%
%TO.N,Net-(U1-PA8_A4_D4_SDA)*%
X179675000Y-73420000D03*
%TO.P,U1,6,PA9_A5_D5_SCL*%
%TO.N,Net-(U1-PA9_A5_D5_SCL)*%
X179675000Y-75960000D03*
%TO.P,U1,7,PB08_A6_D6_TX*%
%TO.N,Net-(U1-PB08_A6_D6_TX)*%
X179675000Y-78500000D03*
%TD*%
D12*
%TO.P,R3,2*%
%TO.N,Net-(D1-DIN)*%
X181675000Y-85525000D03*
%TO.P,R3,1*%
%TO.N,Net-(U1-PB08_A6_D6_TX)*%
X181675000Y-83475000D03*
%TD*%
D13*
%TO.P,R2,2*%
%TO.N,Net-(U1-PA9_A5_D5_SCL)*%
X175200000Y-77000000D03*
%TO.P,R2,1*%
%TO.N,Net-(Brd1-SCL)*%
X173150000Y-77000000D03*
%TD*%
%TO.P,R1,2*%
%TO.N,Net-(U1-PA8_A4_D4_SDA)*%
X175200000Y-69500000D03*
%TO.P,R1,1*%
%TO.N,Net-(Brd1-SDA)*%
X173150000Y-69500000D03*
%TD*%
D14*
%TO.P,D1,1,VDD*%
%TO.N,+3.3V*%
X188525000Y-89450000D03*
%TO.P,D1,2,DOUT*%
%TO.N,unconnected-(D1-DOUT-Pad2)*%
X191825000Y-89450000D03*
%TO.P,D1,3,VSS*%
%TO.N,GND*%
X191825000Y-84550000D03*
%TO.P,D1,4,DIN*%
%TO.N,Net-(D1-DIN)*%
X188525000Y-84550000D03*
%TD*%
D15*
%TO.P,C3,2*%
%TO.N,GND*%
X172675000Y-62500000D03*
%TO.P,C3,1*%
%TO.N,+3.3V*%
X170600000Y-62500000D03*
%TD*%
%TO.P,C2,1*%
%TO.N,GND*%
X195637500Y-87500000D03*
%TO.P,C2,2*%
%TO.N,+3.3V*%
X197712500Y-87500000D03*
%TD*%
D16*
%TO.P,C1,2*%
%TO.N,GND*%
X202675000Y-66425000D03*
%TO.P,C1,1*%
%TO.N,+3.3V*%
X202675000Y-68500000D03*
%TD*%
D17*
%TO.P,Brd1,2,VCC*%
%TO.N,+3.3V*%
X167275000Y-72420000D03*
%TO.P,Brd1,1,GND*%
%TO.N,GND*%
X167275000Y-69880000D03*
%TO.P,Brd1,3,SCL*%
%TO.N,Net-(Brd1-SCL)*%
X167275000Y-74960000D03*
%TO.P,Brd1,4,SDA*%
%TO.N,Net-(Brd1-SDA)*%
X167275000Y-77500000D03*
%TD*%
D15*
%TO.P,C4,2*%
%TO.N,+3.3V*%
X179537500Y-116000000D03*
%TO.P,C4,1*%
%TO.N,GND*%
X177462500Y-116000000D03*
%TD*%
D18*
%TO.P,J1,1,Pin_1*%
%TO.N,+3.3V*%
X183500000Y-112500000D03*
%TO.P,J1,2,Pin_2*%
%TO.N,/signal*%
X180960000Y-109190000D03*
%TO.P,J1,3,Pin_3*%
%TO.N,GND*%
X178420000Y-112500000D03*
%TD*%
D19*
%TO.N,/signal*%
X175000000Y-109000000D03*
X154500000Y-115500000D03*
%TO.N,GND*%
X195675000Y-84000000D03*
X195675000Y-82400000D03*
X198675000Y-72500000D03*
%TO.N,+3.3V*%
X170246957Y-69324143D03*
%TO.N,GND*%
X199675000Y-66000000D03*
%TO.N,+3.3V*%
X189575000Y-69400000D03*
%TO.N,Net-(Brd1-SDA)*%
X170675000Y-70000000D03*
X170675000Y-70000000D03*
X170675000Y-77500000D03*
%TO.N,GND*%
X172175000Y-66000000D03*
%TD*%
D20*
%TO.N,+3.3V*%
X190675000Y-91600000D02*
X204100000Y-91600000D01*
X188525000Y-89450000D02*
X190675000Y-91600000D01*
%TO.N,/signal*%
X154500000Y-115500000D02*
X154500000Y-117000000D01*
X154500000Y-117000000D02*
X156460000Y-117000000D01*
X156460000Y-117000000D02*
X156500000Y-116960000D01*
X180960000Y-109190000D02*
X175190000Y-109190000D01*
X175190000Y-109190000D02*
X175000000Y-109000000D01*
%TO.N,Net-(D1-DIN)*%
X188525000Y-84550000D02*
X187550000Y-85525000D01*
X187550000Y-85525000D02*
X181675000Y-85525000D01*
%TO.N,GND*%
X195637500Y-84037500D02*
X195675000Y-84000000D01*
X195637500Y-87500000D02*
X195637500Y-84037500D01*
%TO.N,+3.3V*%
X194975000Y-83000000D02*
X197675000Y-83000000D01*
X197675000Y-83000000D02*
X199675000Y-83000000D01*
X197712500Y-87500000D02*
X197712500Y-83037500D01*
X197712500Y-83037500D02*
X197675000Y-83000000D01*
X199675000Y-68500000D02*
X196000000Y-68500000D01*
X188525000Y-89450000D02*
X194975000Y-83000000D01*
X200175000Y-68500000D02*
X199675000Y-68500000D01*
X199675000Y-83000000D02*
X199675000Y-68500000D01*
%TO.N,GND*%
X198675000Y-82500000D02*
X198675000Y-72500000D01*
X191825000Y-84550000D02*
X193875000Y-82500000D01*
%TO.N,+3.3V*%
X170600000Y-62500000D02*
X170600000Y-68971100D01*
X170600000Y-68971100D02*
X170246957Y-69324143D01*
X202675000Y-68500000D02*
X200175000Y-68500000D01*
%TO.N,Net-(U1-PB08_A6_D6_TX)*%
X179675000Y-78500000D02*
X181675000Y-80500000D01*
X181675000Y-80500000D02*
X181675000Y-83475000D01*
%TO.N,GND*%
X195840000Y-65800000D02*
X198175000Y-65800000D01*
X202675000Y-66425000D02*
X198800000Y-66425000D01*
X198175000Y-65800000D02*
X199475000Y-65800000D01*
X198800000Y-66425000D02*
X198175000Y-65800000D01*
%TO.N,+3.3V*%
X196000000Y-68500000D02*
X195840000Y-68340000D01*
%TO.N,GND*%
X199475000Y-65800000D02*
X199675000Y-66000000D01*
%TO.N,+3.3V*%
X195840000Y-68340000D02*
X190635000Y-68340000D01*
X190635000Y-68340000D02*
X189575000Y-69400000D01*
%TO.N,Net-(U1-PA8_A4_D4_SDA)*%
X175200000Y-69500000D02*
X179120000Y-73420000D01*
X179120000Y-73420000D02*
X179675000Y-73420000D01*
%TO.N,Net-(Brd1-SDA)*%
X173150000Y-69500000D02*
X171175000Y-69500000D01*
X171175000Y-69500000D02*
X170675000Y-70000000D01*
X167275000Y-77500000D02*
X170675000Y-77500000D01*
%TO.N,Net-(U1-PA9_A5_D5_SCL)*%
X175200000Y-77000000D02*
X176240000Y-75960000D01*
X176240000Y-75960000D02*
X179675000Y-75960000D01*
%TO.N,Net-(Brd1-SCL)*%
X167275000Y-74960000D02*
X171110000Y-74960000D01*
X171110000Y-74960000D02*
X173150000Y-77000000D01*
%TO.N,+3.3V*%
X173705000Y-118000000D02*
X179500000Y-118000000D01*
X179537500Y-116000000D02*
X179537500Y-117962500D01*
X179500000Y-118000000D02*
X183500000Y-118000000D01*
X179537500Y-117962500D02*
X179500000Y-118000000D01*
%TO.N,GND*%
X176500000Y-114420000D02*
X176960000Y-113960000D01*
X177462500Y-114462500D02*
X176960000Y-113960000D01*
X176960000Y-113960000D02*
X178420000Y-112500000D01*
X177462500Y-116000000D02*
X177462500Y-114462500D01*
%TO.N,+3.3V*%
X172665000Y-116960000D02*
X173705000Y-118000000D01*
X183500000Y-118000000D02*
X183500000Y-112500000D01*
%TO.N,GND*%
X172665000Y-114420000D02*
X176500000Y-114420000D01*
X172675000Y-62500000D02*
X172675000Y-65500000D01*
X172675000Y-65500000D02*
X172175000Y-66000000D01*
X193875000Y-82500000D02*
X198675000Y-82500000D01*
%TD*%
M02*
