%TF.GenerationSoftware,KiCad,Pcbnew,8.0.8*%
%TF.CreationDate,2025-02-05T21:11:50-08:00*%
%TF.ProjectId,KiCad,4b694361-642e-46b6-9963-61645f706362,1*%
%TF.SameCoordinates,Original*%
%TF.FileFunction,Legend,Top*%
%TF.FilePolarity,Positive*%
%FSLAX46Y46*%
G04 Gerber Fmt 4.6, Leading zero omitted, Abs format (unit mm)*
G04 Created by KiCad (PCBNEW 8.0.8) date 2025-02-05 21:11:50*
%MOMM*%
%LPD*%
G01*
G04 APERTURE LIST*
%ADD10C,0.150000*%
%ADD11C,0.127000*%
%ADD12C,0.120000*%
G04 APERTURE END LIST*
D10*
X164466166Y-107835533D02*
X164466166Y-108402200D01*
X164466166Y-108402200D02*
X164499500Y-108468866D01*
X164499500Y-108468866D02*
X164532833Y-108502200D01*
X164532833Y-108502200D02*
X164599500Y-108535533D01*
X164599500Y-108535533D02*
X164732833Y-108535533D01*
X164732833Y-108535533D02*
X164799500Y-108502200D01*
X164799500Y-108502200D02*
X164832833Y-108468866D01*
X164832833Y-108468866D02*
X164866166Y-108402200D01*
X164866166Y-108402200D02*
X164866166Y-107835533D01*
X165132833Y-107835533D02*
X165566166Y-107835533D01*
X165566166Y-107835533D02*
X165332833Y-108102200D01*
X165332833Y-108102200D02*
X165432833Y-108102200D01*
X165432833Y-108102200D02*
X165499499Y-108135533D01*
X165499499Y-108135533D02*
X165532833Y-108168866D01*
X165532833Y-108168866D02*
X165566166Y-108235533D01*
X165566166Y-108235533D02*
X165566166Y-108402200D01*
X165566166Y-108402200D02*
X165532833Y-108468866D01*
X165532833Y-108468866D02*
X165499499Y-108502200D01*
X165499499Y-108502200D02*
X165432833Y-108535533D01*
X165432833Y-108535533D02*
X165232833Y-108535533D01*
X165232833Y-108535533D02*
X165166166Y-108502200D01*
X165166166Y-108502200D02*
X165132833Y-108468866D01*
X187641166Y-59215533D02*
X187641166Y-59782200D01*
X187641166Y-59782200D02*
X187674500Y-59848866D01*
X187674500Y-59848866D02*
X187707833Y-59882200D01*
X187707833Y-59882200D02*
X187774500Y-59915533D01*
X187774500Y-59915533D02*
X187907833Y-59915533D01*
X187907833Y-59915533D02*
X187974500Y-59882200D01*
X187974500Y-59882200D02*
X188007833Y-59848866D01*
X188007833Y-59848866D02*
X188041166Y-59782200D01*
X188041166Y-59782200D02*
X188041166Y-59215533D01*
X188741166Y-59915533D02*
X188341166Y-59915533D01*
X188541166Y-59915533D02*
X188541166Y-59215533D01*
X188541166Y-59215533D02*
X188474499Y-59315533D01*
X188474499Y-59315533D02*
X188407833Y-59382200D01*
X188407833Y-59382200D02*
X188341166Y-59415533D01*
X185109819Y-84666666D02*
X184633628Y-84999999D01*
X185109819Y-85238094D02*
X184109819Y-85238094D01*
X184109819Y-85238094D02*
X184109819Y-84857142D01*
X184109819Y-84857142D02*
X184157438Y-84761904D01*
X184157438Y-84761904D02*
X184205057Y-84714285D01*
X184205057Y-84714285D02*
X184300295Y-84666666D01*
X184300295Y-84666666D02*
X184443152Y-84666666D01*
X184443152Y-84666666D02*
X184538390Y-84714285D01*
X184538390Y-84714285D02*
X184586009Y-84761904D01*
X184586009Y-84761904D02*
X184633628Y-84857142D01*
X184633628Y-84857142D02*
X184633628Y-85238094D01*
X184109819Y-84333332D02*
X184109819Y-83714285D01*
X184109819Y-83714285D02*
X184490771Y-84047618D01*
X184490771Y-84047618D02*
X184490771Y-83904761D01*
X184490771Y-83904761D02*
X184538390Y-83809523D01*
X184538390Y-83809523D02*
X184586009Y-83761904D01*
X184586009Y-83761904D02*
X184681247Y-83714285D01*
X184681247Y-83714285D02*
X184919342Y-83714285D01*
X184919342Y-83714285D02*
X185014580Y-83761904D01*
X185014580Y-83761904D02*
X185062200Y-83809523D01*
X185062200Y-83809523D02*
X185109819Y-83904761D01*
X185109819Y-83904761D02*
X185109819Y-84190475D01*
X185109819Y-84190475D02*
X185062200Y-84285713D01*
X185062200Y-84285713D02*
X185014580Y-84333332D01*
X174008333Y-74474819D02*
X173675000Y-73998628D01*
X173436905Y-74474819D02*
X173436905Y-73474819D01*
X173436905Y-73474819D02*
X173817857Y-73474819D01*
X173817857Y-73474819D02*
X173913095Y-73522438D01*
X173913095Y-73522438D02*
X173960714Y-73570057D01*
X173960714Y-73570057D02*
X174008333Y-73665295D01*
X174008333Y-73665295D02*
X174008333Y-73808152D01*
X174008333Y-73808152D02*
X173960714Y-73903390D01*
X173960714Y-73903390D02*
X173913095Y-73951009D01*
X173913095Y-73951009D02*
X173817857Y-73998628D01*
X173817857Y-73998628D02*
X173436905Y-73998628D01*
X174389286Y-73570057D02*
X174436905Y-73522438D01*
X174436905Y-73522438D02*
X174532143Y-73474819D01*
X174532143Y-73474819D02*
X174770238Y-73474819D01*
X174770238Y-73474819D02*
X174865476Y-73522438D01*
X174865476Y-73522438D02*
X174913095Y-73570057D01*
X174913095Y-73570057D02*
X174960714Y-73665295D01*
X174960714Y-73665295D02*
X174960714Y-73760533D01*
X174960714Y-73760533D02*
X174913095Y-73903390D01*
X174913095Y-73903390D02*
X174341667Y-74474819D01*
X174341667Y-74474819D02*
X174960714Y-74474819D01*
X174008333Y-66974819D02*
X173675000Y-66498628D01*
X173436905Y-66974819D02*
X173436905Y-65974819D01*
X173436905Y-65974819D02*
X173817857Y-65974819D01*
X173817857Y-65974819D02*
X173913095Y-66022438D01*
X173913095Y-66022438D02*
X173960714Y-66070057D01*
X173960714Y-66070057D02*
X174008333Y-66165295D01*
X174008333Y-66165295D02*
X174008333Y-66308152D01*
X174008333Y-66308152D02*
X173960714Y-66403390D01*
X173960714Y-66403390D02*
X173913095Y-66451009D01*
X173913095Y-66451009D02*
X173817857Y-66498628D01*
X173817857Y-66498628D02*
X173436905Y-66498628D01*
X174960714Y-66974819D02*
X174389286Y-66974819D01*
X174675000Y-66974819D02*
X174675000Y-65974819D01*
X174675000Y-65974819D02*
X174579762Y-66117676D01*
X174579762Y-66117676D02*
X174484524Y-66212914D01*
X174484524Y-66212914D02*
X174389286Y-66260533D01*
X187129819Y-87738094D02*
X186129819Y-87738094D01*
X186129819Y-87738094D02*
X186129819Y-87499999D01*
X186129819Y-87499999D02*
X186177438Y-87357142D01*
X186177438Y-87357142D02*
X186272676Y-87261904D01*
X186272676Y-87261904D02*
X186367914Y-87214285D01*
X186367914Y-87214285D02*
X186558390Y-87166666D01*
X186558390Y-87166666D02*
X186701247Y-87166666D01*
X186701247Y-87166666D02*
X186891723Y-87214285D01*
X186891723Y-87214285D02*
X186986961Y-87261904D01*
X186986961Y-87261904D02*
X187082200Y-87357142D01*
X187082200Y-87357142D02*
X187129819Y-87499999D01*
X187129819Y-87499999D02*
X187129819Y-87738094D01*
X187129819Y-86214285D02*
X187129819Y-86785713D01*
X187129819Y-86499999D02*
X186129819Y-86499999D01*
X186129819Y-86499999D02*
X186272676Y-86595237D01*
X186272676Y-86595237D02*
X186367914Y-86690475D01*
X186367914Y-86690475D02*
X186415533Y-86785713D01*
X188937295Y-90771428D02*
X188937295Y-91228571D01*
X188937295Y-90999999D02*
X188137295Y-90999999D01*
X188137295Y-90999999D02*
X188251580Y-91076190D01*
X188251580Y-91076190D02*
X188327771Y-91152380D01*
X188327771Y-91152380D02*
X188365866Y-91228571D01*
X196508333Y-86179580D02*
X196460714Y-86227200D01*
X196460714Y-86227200D02*
X196317857Y-86274819D01*
X196317857Y-86274819D02*
X196222619Y-86274819D01*
X196222619Y-86274819D02*
X196079762Y-86227200D01*
X196079762Y-86227200D02*
X195984524Y-86131961D01*
X195984524Y-86131961D02*
X195936905Y-86036723D01*
X195936905Y-86036723D02*
X195889286Y-85846247D01*
X195889286Y-85846247D02*
X195889286Y-85703390D01*
X195889286Y-85703390D02*
X195936905Y-85512914D01*
X195936905Y-85512914D02*
X195984524Y-85417676D01*
X195984524Y-85417676D02*
X196079762Y-85322438D01*
X196079762Y-85322438D02*
X196222619Y-85274819D01*
X196222619Y-85274819D02*
X196317857Y-85274819D01*
X196317857Y-85274819D02*
X196460714Y-85322438D01*
X196460714Y-85322438D02*
X196508333Y-85370057D01*
X196889286Y-85370057D02*
X196936905Y-85322438D01*
X196936905Y-85322438D02*
X197032143Y-85274819D01*
X197032143Y-85274819D02*
X197270238Y-85274819D01*
X197270238Y-85274819D02*
X197365476Y-85322438D01*
X197365476Y-85322438D02*
X197413095Y-85370057D01*
X197413095Y-85370057D02*
X197460714Y-85465295D01*
X197460714Y-85465295D02*
X197460714Y-85560533D01*
X197460714Y-85560533D02*
X197413095Y-85703390D01*
X197413095Y-85703390D02*
X196841667Y-86274819D01*
X196841667Y-86274819D02*
X197460714Y-86274819D01*
X201354580Y-67629166D02*
X201402200Y-67676785D01*
X201402200Y-67676785D02*
X201449819Y-67819642D01*
X201449819Y-67819642D02*
X201449819Y-67914880D01*
X201449819Y-67914880D02*
X201402200Y-68057737D01*
X201402200Y-68057737D02*
X201306961Y-68152975D01*
X201306961Y-68152975D02*
X201211723Y-68200594D01*
X201211723Y-68200594D02*
X201021247Y-68248213D01*
X201021247Y-68248213D02*
X200878390Y-68248213D01*
X200878390Y-68248213D02*
X200687914Y-68200594D01*
X200687914Y-68200594D02*
X200592676Y-68152975D01*
X200592676Y-68152975D02*
X200497438Y-68057737D01*
X200497438Y-68057737D02*
X200449819Y-67914880D01*
X200449819Y-67914880D02*
X200449819Y-67819642D01*
X200449819Y-67819642D02*
X200497438Y-67676785D01*
X200497438Y-67676785D02*
X200545057Y-67629166D01*
X201449819Y-66676785D02*
X201449819Y-67248213D01*
X201449819Y-66962499D02*
X200449819Y-66962499D01*
X200449819Y-66962499D02*
X200592676Y-67057737D01*
X200592676Y-67057737D02*
X200687914Y-67152975D01*
X200687914Y-67152975D02*
X200735533Y-67248213D01*
X156352009Y-74666666D02*
X156399628Y-74523809D01*
X156399628Y-74523809D02*
X156447247Y-74476190D01*
X156447247Y-74476190D02*
X156542485Y-74428571D01*
X156542485Y-74428571D02*
X156685342Y-74428571D01*
X156685342Y-74428571D02*
X156780580Y-74476190D01*
X156780580Y-74476190D02*
X156828200Y-74523809D01*
X156828200Y-74523809D02*
X156875819Y-74619047D01*
X156875819Y-74619047D02*
X156875819Y-74999999D01*
X156875819Y-74999999D02*
X155875819Y-74999999D01*
X155875819Y-74999999D02*
X155875819Y-74666666D01*
X155875819Y-74666666D02*
X155923438Y-74571428D01*
X155923438Y-74571428D02*
X155971057Y-74523809D01*
X155971057Y-74523809D02*
X156066295Y-74476190D01*
X156066295Y-74476190D02*
X156161533Y-74476190D01*
X156161533Y-74476190D02*
X156256771Y-74523809D01*
X156256771Y-74523809D02*
X156304390Y-74571428D01*
X156304390Y-74571428D02*
X156352009Y-74666666D01*
X156352009Y-74666666D02*
X156352009Y-74999999D01*
X156875819Y-73999999D02*
X156209152Y-73999999D01*
X156399628Y-73999999D02*
X156304390Y-73952380D01*
X156304390Y-73952380D02*
X156256771Y-73904761D01*
X156256771Y-73904761D02*
X156209152Y-73809523D01*
X156209152Y-73809523D02*
X156209152Y-73714285D01*
X156875819Y-72952380D02*
X155875819Y-72952380D01*
X156828200Y-72952380D02*
X156875819Y-73047618D01*
X156875819Y-73047618D02*
X156875819Y-73238094D01*
X156875819Y-73238094D02*
X156828200Y-73333332D01*
X156828200Y-73333332D02*
X156780580Y-73380951D01*
X156780580Y-73380951D02*
X156685342Y-73428570D01*
X156685342Y-73428570D02*
X156399628Y-73428570D01*
X156399628Y-73428570D02*
X156304390Y-73380951D01*
X156304390Y-73380951D02*
X156256771Y-73333332D01*
X156256771Y-73333332D02*
X156209152Y-73238094D01*
X156209152Y-73238094D02*
X156209152Y-73047618D01*
X156209152Y-73047618D02*
X156256771Y-72952380D01*
X156875819Y-71952380D02*
X156875819Y-72523808D01*
X156875819Y-72238094D02*
X155875819Y-72238094D01*
X155875819Y-72238094D02*
X156018676Y-72333332D01*
X156018676Y-72333332D02*
X156113914Y-72428570D01*
X156113914Y-72428570D02*
X156161533Y-72523808D01*
X178333333Y-114679580D02*
X178285714Y-114727200D01*
X178285714Y-114727200D02*
X178142857Y-114774819D01*
X178142857Y-114774819D02*
X178047619Y-114774819D01*
X178047619Y-114774819D02*
X177904762Y-114727200D01*
X177904762Y-114727200D02*
X177809524Y-114631961D01*
X177809524Y-114631961D02*
X177761905Y-114536723D01*
X177761905Y-114536723D02*
X177714286Y-114346247D01*
X177714286Y-114346247D02*
X177714286Y-114203390D01*
X177714286Y-114203390D02*
X177761905Y-114012914D01*
X177761905Y-114012914D02*
X177809524Y-113917676D01*
X177809524Y-113917676D02*
X177904762Y-113822438D01*
X177904762Y-113822438D02*
X178047619Y-113774819D01*
X178047619Y-113774819D02*
X178142857Y-113774819D01*
X178142857Y-113774819D02*
X178285714Y-113822438D01*
X178285714Y-113822438D02*
X178333333Y-113870057D01*
X179190476Y-114108152D02*
X179190476Y-114774819D01*
X178952381Y-113727200D02*
X178714286Y-114441485D01*
X178714286Y-114441485D02*
X179333333Y-114441485D01*
X185284819Y-111178333D02*
X185999104Y-111178333D01*
X185999104Y-111178333D02*
X186141961Y-111225952D01*
X186141961Y-111225952D02*
X186237200Y-111321190D01*
X186237200Y-111321190D02*
X186284819Y-111464047D01*
X186284819Y-111464047D02*
X186284819Y-111559285D01*
X186284819Y-110178333D02*
X186284819Y-110749761D01*
X186284819Y-110464047D02*
X185284819Y-110464047D01*
X185284819Y-110464047D02*
X185427676Y-110559285D01*
X185427676Y-110559285D02*
X185522914Y-110654523D01*
X185522914Y-110654523D02*
X185570533Y-110749761D01*
D11*
%TO.C,U3*%
X160061000Y-114928000D02*
X160061000Y-107575000D01*
X169060000Y-114928000D02*
X160061000Y-114928000D01*
X169060000Y-107576000D02*
X169060000Y-114928000D01*
X160065000Y-107576000D02*
X169060000Y-107576000D01*
X155665000Y-109671500D02*
X155665000Y-130000000D01*
X156336541Y-109000000D02*
X155665000Y-109671500D01*
X173465000Y-109000000D02*
X156336541Y-109000000D01*
X173465000Y-130000000D02*
X173465000Y-109000000D01*
X155665000Y-130000000D02*
X173465000Y-130000000D01*
%TO.C,U1*%
X183236000Y-66308000D02*
X183236000Y-58955000D01*
X192235000Y-66308000D02*
X183236000Y-66308000D01*
X192235000Y-58956000D02*
X192235000Y-66308000D01*
X183240000Y-58956000D02*
X192235000Y-58956000D01*
X178840000Y-61051500D02*
X178840000Y-81380000D01*
X179511541Y-60380000D02*
X178840000Y-61051500D01*
X196640000Y-60380000D02*
X179511541Y-60380000D01*
X196640000Y-81380000D02*
X196640000Y-60380000D01*
X178840000Y-81380000D02*
X196640000Y-81380000D01*
D12*
%TO.C,R3*%
X179690000Y-84289758D02*
X179690000Y-84710242D01*
X183660000Y-84289758D02*
X183660000Y-84710242D01*
%TO.C,R2*%
X173964758Y-78985000D02*
X174385242Y-78985000D01*
X173964758Y-75015000D02*
X174385242Y-75015000D01*
%TO.C,R1*%
X173964758Y-71485000D02*
X174385242Y-71485000D01*
X173964758Y-67515000D02*
X174385242Y-67515000D01*
%TO.C,D1*%
X187425000Y-90500000D02*
X192925000Y-90500000D01*
X187425000Y-90500000D02*
X187425000Y-83500000D01*
X192925000Y-90500000D02*
X192925000Y-83950000D01*
X191075000Y-89700000D02*
X189275000Y-89700000D01*
X191075000Y-84300000D02*
X189275000Y-84300000D01*
X192925000Y-83950000D02*
X192475000Y-83500000D01*
X192475000Y-83500000D02*
X187425000Y-83500000D01*
%TO.C,C3*%
X171376248Y-63235000D02*
X171898752Y-63235000D01*
X171376248Y-61765000D02*
X171898752Y-61765000D01*
%TO.C,C2*%
X196413748Y-86765000D02*
X196936252Y-86765000D01*
X196413748Y-88235000D02*
X196936252Y-88235000D01*
%TO.C,C1*%
X203410000Y-67723752D02*
X203410000Y-67201248D01*
X201940000Y-67723752D02*
X201940000Y-67201248D01*
%TO.C,Brd1*%
X168975000Y-60100000D02*
X168975000Y-87500000D01*
X168975000Y-87500000D02*
X141675000Y-87500000D01*
X141675000Y-87500000D02*
X141675000Y-60100000D01*
X141675000Y-60100000D02*
X168975000Y-60100000D01*
X149080000Y-83622000D02*
X149080000Y-60522000D01*
X149080000Y-60522000D02*
X165680000Y-60522000D01*
X165680000Y-60522000D02*
X165680000Y-83622000D01*
X168486000Y-68801000D02*
X168486000Y-78580000D01*
X168486000Y-78580000D02*
X166073000Y-78580000D01*
X166073000Y-78580000D02*
X166073000Y-68801000D01*
X168486000Y-68801000D02*
X166073000Y-68801000D01*
X165680000Y-83622000D02*
X165680000Y-86708000D01*
X149080000Y-83622000D02*
X149055000Y-86962000D01*
X149055000Y-86962000D02*
X165692000Y-86962000D01*
X165692000Y-86962000D02*
X165680000Y-86708000D01*
%TO.C,C4*%
X178238748Y-116735000D02*
X178761252Y-116735000D01*
X178238748Y-115265000D02*
X178761252Y-115265000D01*
%TO.C,J1*%
X184830000Y-109515000D02*
X181720000Y-109515000D01*
X184830000Y-109515000D02*
X184830000Y-112175000D01*
X180200000Y-109515000D02*
X177090000Y-109515000D01*
X177660000Y-109515000D02*
X177090000Y-109515000D01*
X177090000Y-109515000D02*
X177090000Y-112175000D01*
X184830000Y-112175000D02*
X184260000Y-112175000D01*
X184260000Y-112175000D02*
X184260000Y-113695000D01*
X182740000Y-112175000D02*
X179180000Y-112175000D01*
%TD*%
M02*
